<svg xmlns="http://www.w3.org/2000/svg" viewBox="0 0 254.01 295.52"><defs><style>.cls-1{fill:#fff;}</style></defs><g id="Layer_2" data-name="Layer 2"><g id="Layer_1-2" data-name="Layer 1"><path class="cls-1" d="M244.79,196.56c.08-.35.15-.7.23-1.05,1.21-1,1.2-2.41,1.46-3.74,1.3-6.61,2.43-13.25,3.93-19.82a78.73,78.73,0,0,0,1.9-12.94c.43-6.85.64-13.72,1.33-20.54a83.36,83.36,0,0,0-2.79-30c-2.22-8.35-5.93-16.31-9.15-24.38-.69-1.72-1.16-3.91-3.47-4.52.31-1-.34-1.55-.83-2.21A22.39,22.39,0,0,0,227,63.87c-3.55-2.2-7.49-3.23-11.29-4.72-1.22-.48-2.6-1.62-3.69-.18a4.33,4.33,0,0,0-.42,4.22c1,2.91,2.28,5.78,3,8.7a57.25,57.25,0,0,0,12.15,23l-.08.24.18.19c-.54,1.94.79,3.26,1.54,4.79,5.86,11.92,8.38,24.21,4.22,37.27-.77,2.4-3.73,4.07-2.49,7.13a.85.85,0,0,0-.62.74c-.33.11-.74.15-.93.37-5.51,6.41-9.9,13.91-17.71,18-.05,0-.05.14-.06.25-1.61-.75-2.79.48-3.95,1.13-7.08,4-14.81,5-22.77,5-.12,0-.25-.59-.37-.91l3.54-1c7.86-2.28,15.9-4.12,22.46-9.49a1.18,1.18,0,0,0,.88-.62l.06.06a12.06,12.06,0,0,0,5.73-4.24l0,0c5.67-4.29,10-9.6,12.08-16.5l.15-.22a6.79,6.79,0,0,0,1.28-1.77c3-9.92,2.71-20-1.52-29.23-4.6-10-10.4-19.53-14.69-29.76-2.8-6.67-6.64-12.66-5.42-20.86,1.32-8.94,4.73-15,13.42-17.79a7.82,7.82,0,0,0,5.21-4.49c1-2.62,1.45-5.39-.66-7.78-2.29-2.59-4.78-4.74-8.68-3.89a32.62,32.62,0,0,0-8.71,3.33c-10.73,5.91-18.48,19.8-17.11,30.73l-.12,1.5c-.71,5.39,0,10.67,1.25,16a120.76,120.76,0,0,1,18.67,37.05c4.23,8.28,4.21,16.17-.68,24.25a7.13,7.13,0,0,0-.41,1l-.1.15a2.38,2.38,0,0,0-1.63,1.61,3.29,3.29,0,0,0-2.19,2.16l-.86.9v-.13a1.39,1.39,0,0,0-1.1,1.27,9.72,9.72,0,0,0-3.48,2.27l-.09.06c-3.72,2.85-8.05,4-12.59,5a55.18,55.18,0,0,0-14,4.86c-2.84,1.43-5.8,2.78-7.13,6a.9.9,0,0,0-.76.81l-.24-.11c-2.12.28-2.61,2.23-3.44,3.64-1.65,2.82-3,2.34-4.7.09a15.89,15.89,0,0,1-3.19-8.29c-.36-5.08-.91-10.19-.43-15.33a20.6,20.6,0,0,1,5.15-12.2c4.73-5.1,12.37-8.64,19.13-3.11,1.8,1.48,4.12,2.33,5.83,4,3.73,3.68,6.8,7.64,6.72,13.29,0,2.49,1.21,3.56,3.58,2.07,4.42-2.79,8.73-5.67,12.36-9.57,5.52-5.93,4.5-12.8,3.49-19.74-.22-1.45-.72-2.87-1-4.48-.11-.47-3.86-17-17.54-35.85A2.09,2.09,0,0,1,191,73c-1-5.73-2.26-11.48-1.07-17.31.36-1.78.32-3.08-1.63-3.35-3.29-.46-6.66-1.12-9.94-.9a43.48,43.48,0,0,0-17.14,4.82c-6.5,1.28-12.31,4.56-18.79,6.43a17.45,17.45,0,0,1,.91-5.88c1.71-6.2,5-11.9,5.59-18.45,1.56-.81,1.45-2.3,1.47-3.73l0-.07a8.11,8.11,0,0,0,1.5-4.4l0-.07c1-2,2.57-3.67,2.95-6l0-.06a4.34,4.34,0,0,0,1.46-3.7l0,0c1.6-1.68,2-3.94,2.84-6a.3.3,0,0,0,.26-.4,67.41,67.41,0,0,1,6.39-10.8c-3,0-5.08,0-7.19,0-1.7,0-3.3.06-3.88,2.08-2.68,2.55-3.75,6.17-6,9-3.13,1.57-6.33,3.43-9.89,1.71A93.77,93.77,0,0,1,130,11.25C120.77,5.47,111,1.05,99.92.37,90.6-.21,81.06-1.13,73.67,6.65c-.22.23-.69.51-.89.42-5.64-2.44-9.77,1.11-14,3.69-6.55,4-11.71,9.58-17.12,15-23.09,23-26.95,50.69-20.34,81,1.27,5.81,2.32,11.55,1,17.26-1,4.25-.94,8.56-2,12.85-2,8-4,15.84-8,23.17-3,5.58-7.44,10.35-9.41,16.54A57.39,57.39,0,0,0,2,209.68c1.23,4.49,1.1,9.33,3.23,13.69,1.45-.66,1.84-1.89,2.26-3,2.9-8,8.6-13.36,15.69-17.83s14.53-9.2,20.13-15.68c7.48-8.64,14.42-17.77,21.33-26.88a50.28,50.28,0,0,0,9.41-20.53c1.05-5.31.78-10.89,1.1-16.34.68-11.7,0-23.44,1.41-35.13.69-5.56,1.78-11.07,2-16.71.41-13,2.85-25.32,10.57-36.38,5.94-8.52,13.34-13.23,23.73-14.15a39.23,39.23,0,0,1,17.84,2.79l.08.05a8.52,8.52,0,0,0,8.08,2.61c3.14-.66,2.61.55,1.95,2.64C137,41,133.11,53.2,129.59,65.49c-1.07,3.75-2.24,4.79-6.36,3.78a11.62,11.62,0,0,1-6.35-3.65c-.81-.9-1.54-1.69-2.8-1.38-3.4.85-6.49-.4-9.64-1.32-1.39-1.09-2.55,1.6-3.12.71-2.91-4.54-6.67-2-9.83-1.08-3.44,1-7.66,1.75-8.51,6.34-1.21,6.62-1.35,13.37-2.36,20a78.79,78.79,0,0,0-.93,20c.45,4.18-.24,8.36.32,12.49.13,1,.26,2.39,1.7,2.64s1.64-1,2.19-1.73c1-1.3,1.94-2.72,3.55-3.2,5.46-1.62,10.58-4.48,16.47-4.57l3,.14c7.49,1.67,12.12,6.89,16.19,12.9a17.51,17.51,0,0,1,3.19,9.38c.24,5-2,9.19-3.35,13.69-3.08,10.12-10.83,15.3-21.26,13.9-3.8-.51-7.5-1.36-11.41-1.48-3.11-.09-6.14-1.76-9.38-2.12A3.24,3.24,0,0,1,78.29,159c-1.22-3.12-2.57-1.47-3.63,0-.92,1.27-2,2.55-1.85,4.37.25,2.5-1.2,4.06-2.86,5.74-4.84,4.92-9.72,9.75-13.38,15.78-1.24,2-2.1,6-6.2,5.55-6.87-.7-9.12,2.12-7.61,8.71Q47,217.75,52.36,236c3.1,10.58,8.33,20.18,13.17,29.94,3,6,8.65,9.78,14,13.66,8.71,6.31,17.92,11,29,11.54,4.59.21,8.3-.08,10.72-5.37.92,5.25,3.79,7.86,8,8.26,7,.66,14.17,3,21-.11,3.7-1.67,8.36,0,11.3-3.64a3.52,3.52,0,0,0,1.11.07c15-4,28.25-11.14,39.19-22.14,8.84-8.9,18.64-16.87,26.05-27.19,4-5.61,9.57-10.14,11.51-17.15.87-1.46,1.93-2.86,1.62-4.74l0-.07a2.33,2.33,0,0,0,.87-2.32l-.1.18,0-.09C241.58,210.12,244.59,203.69,244.79,196.56Zm-122.73-2.48a21,21,0,0,0,3-5.5c2.59-6.61,7.28-11.78,12-16.83,2.41-2.56,5.11-1.91,8.5,1.67v0c.47,5-.06,10,1.37,15.1,1.17,4.19-.11,9-2.63,12.86-2.19,3.38-5.48,3.81-8.66,1.27a4.32,4.32,0,0,0-4.81-.78,9.12,9.12,0,0,1-4.73.81c-1.77-.24-4.27.9-5.1-1.16A7.45,7.45,0,0,1,122.06,194.08Zm28.54,49.18c-6.11,3.81-13.33,4.4-20.47,3.2-2.47-.42-4.87-1.07-7.37-.52-2.93.64-4.68-3-7.65-2.06l-.17,0c-5.2-3.13-8.87-11.89-7.25-17,2.09-6.68,12.1-11.72,19.9-6.4,5.71,3.91,11.84,4.07,18.06,4.77,3.2.36,6.27,1,8.49,3.38C159.16,234,157.13,239.18,150.6,243.26Z"/></g></g></svg>