<svg xmlns="http://www.w3.org/2000/svg" viewBox="0 0 247.03 288.84"><defs><style>.cls-1{fill:#fff;}.cls-2{fill:none;}</style></defs><g id="Layer_2" data-name="Layer 2"><g id="Layer_1-2" data-name="Layer 1"><path class="cls-1" d="M244,106.15a145.8,145.8,0,0,0-6.58-18c-.82-2-1.65-4-2.44-6-.1-.26-.21-.54-.31-.83s-.27-.71-.43-1a1.15,1.15,0,0,0-.76-.65l-2-.52a1.17,1.17,0,0,1-.82-1.47l.43-1.4,0,0-.39-.53-.17-.63c-1.34-4.85-4.16-8.47-8.88-11.4a37.51,37.51,0,0,0-7.4-3.22l-.27-.09a1.16,1.16,0,0,0-1.48,1.51h0a53.76,53.76,0,0,1,2,6A53.77,53.77,0,0,0,226,89.46l1.26,1.5,0,.12.09.1-.4,1.44a1.14,1.14,0,0,0,.12.9c.1.18.22.38.32.54.26.44.52.88.74,1.33,7,14.21,8.44,27.26,4.42,39.87a11.59,11.59,0,0,1-1.79,3.26,6.84,6.84,0,0,0-.84,1.37s0,.05,0,.13l1,2.4a1.17,1.17,0,0,1-.76,1.56l-.91.26-.09.49-1.58.54a1.14,1.14,0,0,0-.53.36c-1,1.23-2,2.5-3.07,3.83-3.64,4.65-7.4,9.44-12.77,12.88a1.14,1.14,0,0,0-.53.87l-.1,1.15a1.17,1.17,0,0,1-1.66,1l-2.53-1.18-.33.22c-.31.2-.62.4-.92.57-8.47,4.83-17.45,5.47-24.34,5.47h-.14c-1,0-2.79-.39-3.6-3l-.05-.16-.89-2.36a1.18,1.18,0,0,1,.78-1.54l6-1.7,2.63-.75c6.85-1.94,13.31-3.77,18.59-8.09l.24-.19.91-2.3a1.17,1.17,0,0,1,1.92-.39l.08.08a1.17,1.17,0,0,0,1.58.07,9.51,9.51,0,0,0,1.36-1.46l.51-.56.19-.15c5.53-4.18,9.08-9,10.85-14.74l.15-.51.54-.77c.19-.26.42-.52.64-.77l.18-.2c2.75-9.26,2.25-18.4-1.44-26.48-2-4.33-4.25-8.67-6.45-12.87-2.86-5.47-5.82-11.12-8.28-17-.5-1.18-1-2.34-1.56-3.49-2.58-5.66-5.25-11.51-4.1-19.24,1.12-7.57,3.92-16.75,15.8-20.61a4.37,4.37,0,0,0,3-2.38c1-2.75.56-3.61,0-4.24-2.24-2.54-3.49-3.19-5.31-2.79a28.91,28.91,0,0,0-7.77,3C197.57,30,190.55,42.46,191.75,52l0,.35-.17,2c-.52,4-.23,8.16,1,13.79a1.13,1.13,0,0,0,.2.45,124.92,124.92,0,0,1,18.51,37,.44.44,0,0,0,.06.16c4.7,9.43,4.41,18.33-.91,27.18,0,0,0,.07,0,.11s-.11.33-.17.49l-.16.4-1,1.44-.64.22-.21.64a1.18,1.18,0,0,1-.74.75l-1.11.36-.23.64-1.68,1.8-.08.83-1,.44a1.08,1.08,0,0,0-.37.26l-4.52,4.74,0-1.92c-4.07,2.76-8.59,3.94-12.91,4.8a51.42,51.42,0,0,0-13.1,4.56l-.42.21c-2.66,1.32-4.32,2.23-5.06,4l-.69,1.68-.12,0-.24,1.45a1.17,1.17,0,0,1-1.66.86l-1.22-.6-.14.28c-.19.37-.38.74-.58,1.09-.51.87-2.06,3.5-5,3.66s-4.82-2.32-5.52-3.26A19.18,19.18,0,0,1,148,152.76c-.05-.76-.11-1.53-.17-2.3a78.75,78.75,0,0,1-.25-13.6,24,24,0,0,1,6.06-14.26c5.6-6,15.23-10.55,23.92-3.43a18.08,18.08,0,0,0,2.14,1.39,19.19,19.19,0,0,1,3.93,2.83c3.16,3.12,6.36,6.93,7.41,12a1.17,1.17,0,0,0,1.8.76,47,47,0,0,0,8.43-6.9c4.36-4.69,3.54-10.3,2.59-16.79-.09-.61-.24-1.23-.4-1.88s-.4-1.58-.55-2.5c-.35-1.48-4-16.37-16.39-33.7a1.15,1.15,0,0,0-.27-.27,5.65,5.65,0,0,1-2.2-3.74l-.24-1.36c-1-5.32-2-10.83-.92-16.62l.36-2.3a1.16,1.16,0,0,0-1-1.34,35.6,35.6,0,0,0-7.4-.52,43.51,43.51,0,0,0-17,4.76l-.27.09c-5.93,1.19-11.28,4-17.11,5.93A1.17,1.17,0,0,1,139,57.81a23.42,23.42,0,0,1,.88-4.17c1.66-6,4.85-11.57,5.53-17.88a1.13,1.13,0,0,1,.42-.79c1.18-.84,1.09-2.2,1.11-3.51l0-.07a8.11,8.11,0,0,0,1.5-4.4l0-.07c1-2,2.57-3.67,3-6l0-.06a4.34,4.34,0,0,0,1.46-3.7l0,0c1.6-1.68,2-3.94,2.84-6a.3.3,0,0,0,.26-.4,63,63,0,0,1,5.13-9,1.17,1.17,0,0,0-1-1.82c-1.87,0-3.41,0-4.95,0s-3.16.06-3.8,1.83a1.21,1.21,0,0,1-.27.43c-2.52,2.52-3.6,6-5.79,8.74l-.09.15L142.7,15.8a1.13,1.13,0,0,1-.66.55c-.36.12-.72.22-1.1.31a10.3,10.3,0,0,1-7.05-.73l-.32-.15A94,94,0,0,1,124.65,11C114.26,4.53,105.23,1.24,96.22.69l-1-.07c-8.83-.56-16.47-1-22.46,5.26a4.37,4.37,0,0,1-4.86,1.21c-3-1.31-5.28,0-9,2.41l-1.69,1.07c-5.31,3.22-9.67,7.61-14.28,12.25-.73.73-1.46,1.47-2.2,2.2-20.1,20-26.44,45.43-19.39,77.73,1.37,6.25,2.47,12.39,1,18.8a50.46,50.46,0,0,0-.89,5.89,56.15,56.15,0,0,1-1.08,7c-2,8.31-4.17,16.39-8.33,24-1.17,2.14-2.51,4.15-3.8,6.08C6,167.8,3.9,170.88,2.79,174.37a53.61,53.61,0,0,0-.88,31.21c.22.83.4,1.65.56,2.47a1.17,1.17,0,0,0,2.1.46,44.23,44.23,0,0,1,13.27-12.14c6.56-4.12,14-8.79,19.35-15,7.54-8.71,14.48-17.86,21.19-26.7a46.51,46.51,0,0,0,8.77-19.1A62.86,62.86,0,0,0,68,124.89c0-1.69.09-3.45.19-5.19.26-4.51.31-9.15.36-13.63a197.68,197.68,0,0,1,1.07-21.73c.21-1.72.46-3.44.71-5.16A96.26,96.26,0,0,0,71.55,68c.5-15.88,4.06-28,11.2-38.27C89.5,20,97.85,15,109,14.05a42.37,42.37,0,0,1,19.4,3l.31.12.65.4.37.35a5,5,0,0,0,4.87,1.64,7.15,7.15,0,0,1,4,.07,4.9,4.9,0,0,1,.52.24,1.17,1.17,0,0,1,.45,1.59l-2.23,4.06a2,2,0,0,0-.1.21c-3.8,12.17-7.65,24.33-11.16,36.58-.56,2-1.15,3.19-2.18,3.76h0a3.34,3.34,0,0,1-.38.17h0a6.78,6.78,0,0,1-3.77-.16,11.62,11.62,0,0,1-6.35-3.65c-.81-.9-1.54-1.69-2.8-1.38-3.4.85-6.49-.4-9.64-1.32-1.39-1.09-2.55,1.6-3.12.71-2.91-4.54-6.67-2-9.83-1.08a35,35,0,0,0-4.09,1.27,1.16,1.16,0,0,0-.69,1l-1,10v.06c-.2,1.76-.37,3.55-.54,5.39-.27,3-.56,6.11-1,9.2-.8,5.33-1.63,12.32-.91,19.1a49.92,49.92,0,0,1,.15,6.43v.33a1.16,1.16,0,0,0,1.73,1A7.44,7.44,0,0,1,83,112.6c1.58-.47,3.13-1,4.77-1.66,3.92-1.47,8-3,12.65-3.06h.23l3,.14h.32l.3.07c8.94,2,14.28,8.37,18.33,14.35a20.92,20.92,0,0,1,3.79,11.18c.21,4.36-1.16,8.18-2.37,11.54-.41,1.15-.8,2.23-1.13,3.32-3.61,11.87-13,18-25.07,16.36-1.25-.17-2.48-.37-3.71-.57a57.68,57.68,0,0,0-7.35-.88,22,22,0,0,1-5.92-1.22,21.07,21.07,0,0,0-3.73-.92,6.8,6.8,0,0,1-4.06-2,1.14,1.14,0,0,0-.19.52c.43,4.24-2.15,6.84-3.85,8.56l-.73.75c-4.57,4.63-8.88,9-12.15,14.39-.16.26-.35.66-.55,1.07-1.06,2.18-3.26,6.73-9,6.14-3.24-.32-3.9.38-3.93.41s-.66.8.08,4c2.84,12.41,6,24.75,9.55,36.68,2.54,8.66,6.69,16.92,10.71,24.9q1.13,2.24,2.24,4.47c2.36,4.77,6.85,8,11.6,11.43l1.31.95c9.81,7.11,18.18,10.46,27.14,10.88,4.45.2,6-.21,7.38-3.33l3.12-6.83a1.17,1.17,0,0,1,2.22.29l1.29,7.39c.77,4.4,2.92,5.19,4.93,5.38,1.72.16,3.43.41,5.08.66,5.06.75,9.83,1.46,14.1-.48a17.14,17.14,0,0,1,5.67-1.22c2.46-.23,3.54-.42,4.34-1.42l.77-1a1.18,1.18,0,0,1,1-.43l1.24.09.41.05c14.73-4,27.22-11.13,37.13-21.1,2.56-2.57,5.22-5.09,7.79-7.53,6.58-6.23,12.8-12.12,17.9-19.23,1.29-1.79,2.7-3.46,4.06-5.07,3-3.5,5.77-6.81,6.92-11l.12-.46.59-1c.2-.32.36-.6.5-.85a1.16,1.16,0,0,0,0-1.13l-.27-.48a1.17,1.17,0,0,1,.29-1.5l1.61-1.27a1.35,1.35,0,0,0-.47.89l2.41-.3L233.6,213l-.65-.17a.36.36,0,0,1,0-.1c.56-2.14,1.24-4.24,1.9-6.27,1.44-4.49,2.81-8.72,2.93-13.16v-.34l.49-2.18a1.13,1.13,0,0,1,.41-.65l.53-.43a7.66,7.66,0,0,0,.17-.9c.05-.28.09-.57.15-.86q.6-3.1,1.18-6.21c.85-4.5,1.73-9.14,2.77-13.72a75.31,75.31,0,0,0,1.82-12.37q.19-3.21.36-6.42c.24-4.67.5-9.5,1-14.26A79.29,79.29,0,0,0,244,106.15ZM115.83,188.73a17.48,17.48,0,0,0,2.53-4.6c2.75-7,7.41-12.29,12.77-18a7.69,7.69,0,0,1,5.64-2.65h0c2.59,0,5.19,1.41,7.93,4.32l.34.35.54,1,.08.71c.17,1.81.21,3.59.26,5.31a36.9,36.9,0,0,0,1,9.17c1.37,4.88.25,10.61-3.06,15.71a9.12,9.12,0,0,1-6.25,4.39,8.59,8.59,0,0,1-1.3.1,9.86,9.86,0,0,1-6.23-2.39c-.68-.54-.82-.48-1.26-.3a12.59,12.59,0,0,1-6.54,1.06,7.27,7.27,0,0,0-1,0c-1.47.13-5.37.48-6.92-3.37A10.88,10.88,0,0,1,115.83,188.73Zm41,44.06c-.52,3.86-3.18,7.31-7.9,10.26h0a29.49,29.49,0,0,1-15.87,4.29,42.39,42.39,0,0,1-7-.61l-1.29-.24a12.58,12.58,0,0,0-4.74-.32,8.27,8.27,0,0,1-6.28-1.48l-.72-.42a1.18,1.18,0,0,0-.9-.1l-.59.18-1.51-.47-.38-.23c-6.54-3.94-10.9-14.39-8.79-21.09,1.41-4.49,5.4-8.37,10.42-10.11a16.4,16.4,0,0,1,14.79,1.86c4.28,2.93,8.86,3.4,14.16,3.94l2.32.25c3.79.43,7.71,1.26,10.68,4.49C156.81,226.87,157.18,230.46,156.87,232.79Z"/><line class="cls-2" x1="123.9" y1="66.08" x2="123.52" y2="66.25"/><line class="cls-2" x1="182.89" y1="52.43" x2="182.67" y2="53.9"/></g></g></svg>