<svg xmlns="http://www.w3.org/2000/svg" viewBox="0 0 342.93 400.88"><defs><style>.cls-1{fill:#fff;}.cls-2{fill:#161616;}</style></defs><g id="Layer_2" data-name="Layer 2"><g id="Layer_1-2" data-name="Layer 1"><path class="cls-1" d="M339.57,202.34c-1.48,10.48-2.41,21-3.32,31.58-.78,9.18-.54,18.49-1.95,27.56s-4.49,18.11-6.54,27.22c-1.22,5.45-2.05,11-2.76,16.56-1.61,12.59-2.59,25.28-4.7,37.78-1.5,8.93-4.88,17.55-6.59,26.46-2,10.37-3.07,20.91-4.54,31.38H46.66a45.83,45.83,0,0,0,1.47-4.62c2.69-12.85,6.21-25.48,12-37.24,4.74-9.56,7.12-19.25,5.65-29.95-1-7-5.88-12.11-12.92-12.27-2.75-.06-5.5.08-8.24,0-9.41-.36-18.9,1-28-2.91A28,28,0,0,1,.44,283.63,84.58,84.58,0,0,1,11.35,255.2c3.13-5.16,2.19-10.67,0-15.41-1.69-3.63-1.21-6.07.67-8.9a9.15,9.15,0,0,0,.46-10.24c-1.88-3.27-1.17-6.19.49-9.15.92-1.63,2.45-3.17,2.67-4.88.33-2.53.49-5.65-.72-7.63-.76-1.24-4.17-1.08-6.4-1.14-4.11-.11-6.65-2-6.58-6a47.13,47.13,0,0,1,1.3-10.38,69.78,69.78,0,0,1,12.64-26A49.12,49.12,0,0,0,22.48,144c4.17-10.5,7.87-21.18,11.75-31.8C39.15,98.67,45.67,86,52.76,73.52c7.87-13.85,20.64-23,31.8-33.6,6.65-6.3,15.58-10.23,23.58-15.06,5.1-3.07,10.12-6.55,15.64-8.6C140.78,10,158,3.85,176.06,1.36,193.28-1,210.35.4,227.62.56a204.3,204.3,0,0,1,23,1.53C258.14,3,266,4,273.12,6.55A77.23,77.23,0,0,1,284.7,12c2.44,1.39,4.82,2.9,7.14,4.51l.41.28c5.3,3.71,10.06,8.22,15.48,11.73,11.86,7.67,18.08,19.62,24.4,31.43,6.13,11.45,6.86,24.31,8.4,36.9.62,5.07,1.33,10.15,1.49,15.24.42,14,.54,27.92.85,41.88A297,297,0,0,1,339.57,202.34Z"/><path class="cls-2" d="M70.43,118.08s33.32-47.39,81.63-9.78C152.06,108.3,102.84,138,70.43,118.08Z"/><ellipse class="cls-2" cx="165.36" cy="165.85" rx="25.7" ry="17.85" transform="translate(-57.2 238.76) rotate(-63.22)"/><ellipse class="cls-2" cx="274.31" cy="123.25" rx="24.96" ry="20.57" transform="translate(40.69 312.62) rotate(-63.22)"/><ellipse class="cls-2" cx="223.99" cy="36.88" rx="22.09" ry="14.35" transform="translate(90.15 220.24) rotate(-63.22)"/><path class="cls-2" d="M115.83,389H130.5s89.89-79.34,117-8.26c0,0,25.22-81.63-61.46-51.36,0,0,29.36-23.85,26.15-83,.93-13.69,78.42-58.24,13.75,79.8l6,3.21s55-83.92,71.55-15.59c0,0,33.53-84.84-29.09-50.91,31.84-61.84,15.33-60.38,6.71-118.1-8.35-24.52-9.73,6.66-9.73,6.66s24.77,77.51-3.21,99.06c9.53-13.63-15.44-84.61-57.78-14.67-9-31.8-11-13.32-35.31-62.83l-12.38,7.34s83.61,91.26-10.55,166.47c52.58-60.84,19.4-146.27-61.91-55C90.15,291.74,202.5,242.21,115.83,389Z"/><path class="cls-2" d="M31.91,293.57S64,164.93,110.1,198.64c0,0-31.42-34.85-4.13-76.59h4.13c-2.49,73.42,35.77,88.51,27.64,132.48C110.33,171.35,74.33,250,31.91,293.57Z"/><path class="cls-2" d="M196.31,207.05c8.26-14.37,35.09-108.61-24.85-97.69,0,0,45-39.82,47.78,19.8,0,0,24.08-33.25,2.53-73.6l11.94-7.21s23.14,80.58-14.47,94.8c0,0-.46,21.32-4.81,32.1,0,0,27.74-27.74,40.35,9.63C254.78,184.88,218.1,167.3,196.31,207.05Z"/></g></g></svg>