<svg xmlns="http://www.w3.org/2000/svg" viewBox="0 0 416.32 531.93"><defs><style>.cls-1{fill:#fff;}</style></defs><g id="Layer_2" data-name="Layer 2"><g id="Layer_1-2" data-name="Layer 1"><path class="cls-1" d="M415.36,186.22c-2.46-48.66-5.17-104.37-40.46-141.29-18.79-19.66-47.45-30.38-73.25-37.19C237.8-9.1,158.63,1,106.56,43.54c-9.87,8.07-19.7,16.79-27.27,26.93-14.12,18.92-22.88,40.67-28.87,63.59-3,11.31-7.19,22.3-11.2,33.31-5.67,15.55-11.08,31.24-17.76,46.37-3,6.87-8.63,12.67-13.44,18.66-3.86,4.8-8,9.22-8,16,0,2.68,1.05,3.89,3.59,4.18,4.53.52,9.05,1.24,13.59,1.66,3.57.34,4,2.82,4.25,5.55.67,8.39-1.77,16.08-5.66,23.32-3,5.59-5.54,11.23-5,17.73a15.34,15.34,0,0,0,1.43,6c5.31,9.54,4.84,18.55-1.83,27.22-5.18,6.72-5.23,19.62,3,26.88,8.78,7.77,9.57,17.73,5.76,28.42-2.25,6.33-5.18,12.48-6.78,19-2.58,10.49-3.57,21.14,1.46,31.38,2.74,5.6,5.09,11.43,8.26,16.78,9.21,15.57,22.92,25,41,26.62a174.35,174.35,0,0,0,44-1.35c7.24-1.2,14.75-1.86,21.6,1.55a14.58,14.58,0,0,1,6.22,6.38c1.73,3.64,2.28,38.3,3.33,42.26H355.74c.84-6.55,1.13-43.68,2.64-50.08,2.5-10.65,5.79-21.12,8.71-31.68,3.15-11.41,5.91-22.95,9.49-34.23,2.9-9.13,7.25-17.8,10.08-26.95,3-9.76,4.41-20,7.56-29.73,6.13-18.85,7.75-38.61,12.37-57.76,2.4-9.91,3.67-20.11,5.06-30.23.84-6.16.28-12.56,1.47-18.63C417.47,230.59,416.48,208.38,415.36,186.22ZM69.61,214.61A43.51,43.51,0,0,1,59.14,218a8.45,8.45,0,0,1-2,.22,12.94,12.94,0,0,1-4.53-1c-.43-.16-.85-.31-1.22-.41a7,7,0,0,1-2.9-11.91c.32-.3.57-.56.79-.78a10.85,10.85,0,0,1,3.46-2.59c3.93-1.77,6.49-5.29,9.11-10,2.44-4.4,4.88-8.93,7.24-13.3,3.8-7.06,7.74-14.36,11.83-21.47,6.74-11.72,14.82-19.15,25.44-23.39l.79-.32c6.48-2.59,13.18-5.28,21.35-4.48,8.65.85,16,6.73,19.21,15.37s3.55,17.42,3.84,25.81c.09,2.47.17,4.81.33,7.15l.12,2c.26,4.44.48,8.27,2.32,11.3.59,1,1.09,2,1.53,2.82.29.57.61,1.18.91,1.7H158a11,11,0,0,0,1.58-.33c.59-.14,1.18-.28,1.78-.4a7,7,0,0,1,7.81,4.19l.84,2a7,7,0,0,1-3,8.74c-.32.19-.77.51-1.25.85a15.16,15.16,0,0,1-7.42,3.26l-1,.09c-5.35.51-11.4,1.08-17.32-.11-7-1.4-12.87-7-15.3-14.54-1.13-3.51-2-7-2.91-10.45-.73-2.87-1.43-5.57-2.24-8.25a8.34,8.34,0,0,0-1.09-2.5c-1.48-1.12-3.53-1.06-8.29.19-4.53,1.2-7.59,5-11.13,9.44-1,1.19-1.94,2.42-3,3.64L94.94,192c-1.34,1.55-2.61,3-3.78,4.52A64.61,64.61,0,0,1,69.61,214.61ZM355.18,111.28a38.26,38.26,0,0,1-8.77,19.78c-9.18,11-20.26,19.51-34.41,23.13-2.5.64-5.4-.22-8.1-.42-1.37-.11-2.72-.4-4.09-.45-3-.13-6.28.36-5.6-4.47.1-.74-.88-1.63-1.61-2.88-.59,1-1.16,1.54-1.22,2.13-.75,7.68-4.35,14.05-8.95,20A32.28,32.28,0,0,0,279.7,173c-1.36,2.63-3,4.7-6.17,5.52-1.35.35-2.57,1.86-3.49,3.11-5.29,7.24-8.38,15.49-10.89,24a116.48,116.48,0,0,0-4,44.7,42.46,42.46,0,0,0,10.33,24c1.13,1.29,1.82,3,2.93,4.27,4.75,5.64,9.85,11,14.31,16.89,3.65,4.8,6.45,10.24,9.88,15.22,1.59,2.32,3.78,4.22,5.69,6.31q6.27,6.9,12.53,13.79a14.62,14.62,0,0,1,1.62,2c1.74,2.8,4.23,5.44,5,8.5,2.71,11.05,6,22.1,4.68,33.7a78.81,78.81,0,0,1-2.2,13.38c-1.94,6.6-3.22,13.3-6.28,19.77a174.29,174.29,0,0,1-9.1,17.34c-1.16,1.88-2.77,3.47-4,5.33-4.51,7-8.87,14-13.42,21-2.56,3.9-5.63,7.49-8,11.48-3.48,5.81-6.69,11.79-9.78,17.82-2.42,4.74-4.47,9.66-6.41,13.91-5-3.81-9.6-8.52-15.15-11.09s-12.14-3-18.11-4.36c.66-4.47,2.21-9.72,2-14.9-.24-6.38-.81-13.17-3.24-18.95-4-9.44-12-12.24-22.35-10a160.4,160.4,0,0,0-33.3,11.43c-6.07,2.78-12,5.91-18.3,8.12-3.34,1.17-7.26.82-10.92.94-10.4.35-16.81-5.68-21.21-14.13-1.34-2.59-1.37-6-1.43-9.08a97.45,97.45,0,0,1,.55-14.8A152.18,152.18,0,0,1,125,400.75c2.67-10.44,5.07-21,8.65-31.13,2.55-7.23,2.68-14.4,2.44-21.7-.17-5.17-.14-10.7-1.95-15.39-2.92-7.56-8-14.08-16-17.08a20.47,20.47,0,0,0-9.19-.82c-4.77.52-9.45,1.79-14.17,2.72a4,4,0,0,1-1.08-.07l-.63-1.1c3.82-2.71,7.46-5.76,11.53-8a109.94,109.94,0,0,1,14.51-6.66,72.75,72.75,0,0,1,29.39-4.39c7.75.37,15.79,2,22.64,6.71,9.63,6.61,13,15,10,26.51-2.28,8.76-5.1,17.38-7.15,26.19-1.21,5.19-1.81,10.72,3.09,14.84a18.94,18.94,0,0,0,12.72,4.57c9.3-.2,18.59-1.07,27.89-1.54,4.1-.21,8.42-.94,12.26.05s8.25,3,10.76,6c6.6,7.82,11.75,16.47,11.68,27.45-.06,8.82,1.35,17.66-1.39,26.34a2.81,2.81,0,0,0,.91,2.5,2.92,2.92,0,0,0,2.65-.32c1.56-1.19,2.86-2.73,4.31-4.07,4.62-4.26,9.33-8.41,13.85-12.77A37,37,0,0,0,277,414c3.8-5.38,7.55-10.8,11.3-16.21a7.6,7.6,0,0,0,1.11-2c2.42-7.95,5.72-15.7,5.54-24.26-.09-4.08.51-8.2.1-12.23A22.27,22.27,0,0,0,292.3,350c-4.77-7.6-9.62-15.27-15.39-22.11-4.57-5.41-10.86-9.34-15.82-14.47a152.29,152.29,0,0,1-13.44-16.3,34.69,34.69,0,0,1-4.52-9.77c-3-9.23-6.23-18.43-8.31-27.87-2.68-12.16-4-24.63-1.06-36.93,1.63-6.79,4.46-13.3,7-19.84s5.29-12.75,8.12-19.51a87.37,87.37,0,0,1-9.24-.55c-6.1-1-12.54-1.46-18.13-3.82-7.71-3.24-15.23-7.42-17.37-16.95-1.52-6.79-4.2-13.34-5.38-20.17-.94-5.49-1.06-8.76,3.25-12.42-.6-2.38-2.33-2.68-4.51-2.68-5.2,0-10.36.21-15.29-2.39-5.34-2.83-11.64-8.91-11.07-17a66.31,66.31,0,0,1,7-26.33c3.26-6.35,6.95-12.12,12.59-16.32,6.61-4.92,13.81-8.38,22.51-5.6,2.6.83,5.4,1,8,1.94,1.38.48,2.43,1.84,3.67,2.76.89.66,1.84,1.23,2.76,1.85.59-1.09,1.56-2.14,1.67-3.27a31.48,31.48,0,0,0-.26-6.35c-1.8-15.79,16.17-29.16,29.71-28.13a136.64,136.64,0,0,1,18.26,3A5.33,5.33,0,0,1,279.24,32c4.71,3.92,9.91,7.44,13.86,12,2.6,3,3.46,7.59,5,11.52.43,1.13.25,2.47.54,3.67.51,2.08,1.25,4-1.15,5.66-.6.4-.83,2.25-.42,3a3.41,3.41,0,0,0,2.85,1,5.85,5.85,0,0,0,2.94-1.48c3.68-3.15,7.95-3.65,12.54-3.21,2.61.25,5.59-.51,7.78.52,5.88,2.76,11.43,6.23,17.09,9.45.39.23.5,1,.89,1.17,8.22,4.15,10.33,12.27,13.13,20C356.17,100.47,355.94,105.69,355.18,111.28Z"/><path class="cls-1" d="M272.59,102.74c-.36,11.34-6.55,18.21-16.14,17.92-10.94-.32-17.79-6.35-17.46-15.34.34-9.57,8.77-17.73,17.76-17.78C268.38,87.48,273.25,95,272.59,102.74Z"/><path class="cls-1" d="M148.56,202.6c-6.26,2.32-10.89-1.89-13.87-6.3-3.57-5.29-5.19-11.51-6.07-17.78-1.05-7.46-3.85-10.55-11.26-11.45-.73-.09-1.46-.11-3.33-.23,10-7,10.83-16.28,9.16-26.42,4-2.37,11.27.54,13.6,5.72,3.21,7.15,4.1,14.72,4.17,22.52a102.41,102.41,0,0,0,1.52,19.27c.91,4.52,3.68,8.66,5.61,13A12.32,12.32,0,0,1,148.56,202.6Z"/><path class="cls-1" d="M99.56,171c-5.08,6.08-10,11.89-14.82,17.76-6.46,7.84-13.45,15-23.37,18.7,7.95-8.55,12.39-19.17,17.77-29.24,3-5.56,6.25-11,9.75-16.24a38.7,38.7,0,0,1,7-7.19C95.47,160.88,92.57,167.38,99.56,171Z"/></g></g></svg>